<svg xmlns="http://www.w3.org/2000/svg" viewBox="0 0 64 64" width="64" height="64">
  <path d="M58 28c-.8-.6-2.7-1-5.1-.7-.3-2.3-1.7-4.3-4-5.8l-.8-.5-.6.8c-1.2 1.8-1.5 4.8-.3 6.8-.7.4-2 .8-3.7.8H4.5c-.4 2.4.2 5.6 2 7.9 1.7 2.2 4.3 3.4 7.8 3.4 7.4 0 12.9-3.4 15.5-9.6 1.8.1 5.7.1 7.7-3.8.1-.1.4-.7.5-1l-.5-.3z" fill="#2496ED"/>
  <path d="M10 27H6v4h4v-4zm5 0h-4v4h4v-4zm5 0h-4v4h4v-4zm5 0h-4v4h4v-4zm5 0h-4v4h4v-4zm-20-5H6v4h4v-4zm5 0h-4v4h4v-4zm5 0h-4v4h4v-4zm5 0h-4v4h4v-4zm5 0h-4v4h4v-4zm-20 10H6v4h4v-4z" fill="#2496ED"/>
  <rect x="6" y="22" width="4" height="4" rx="0.5" fill="white" opacity="0.9"/>
  <rect x="11" y="22" width="4" height="4" rx="0.5" fill="white" opacity="0.9"/>
  <rect x="16" y="22" width="4" height="4" rx="0.5" fill="white" opacity="0.9"/>
  <rect x="21" y="22" width="4" height="4" rx="0.5" fill="white" opacity="0.9"/>
  <rect x="26" y="22" width="4" height="4" rx="0.5" fill="white" opacity="0.9"/>
  <rect x="11" y="27" width="4" height="4" rx="0.5" fill="white" opacity="0.9"/>
  <rect x="16" y="27" width="4" height="4" rx="0.5" fill="white" opacity="0.9"/>
  <rect x="21" y="27" width="4" height="4" rx="0.5" fill="white" opacity="0.9"/>
  <rect x="6" y="27" width="4" height="4" rx="0.5" fill="white" opacity="0.9"/>
  <path d="M58 28c-.8-.6-2.7-1-5.1-.7-.3-2.3-1.7-4.3-4-5.8l-.8-.5-.6.8c-1.2 1.8-1.5 4.8-.3 6.8-.7.4-2 .8-3.7.8H4.5c-.4 2.4.2 5.6 2 7.9 1.7 2.2 4.3 3.4 7.8 3.4 7.4 0 12.9-3.4 15.5-9.6 1.8.1 5.7.1 7.7-3.8.1-.1.4-.7.5-1l-.5-.3z" fill="#2496ED" opacity="0.3"/>
</svg>
