<svg xmlns="http://www.w3.org/2000/svg" viewBox="0 0 64 64" width="64" height="64">
  <rect width="64" height="64" rx="8" fill="#F7DF1E"/>
  <path d="M20 48c1.2 2 2.8 3.5 5.8 3.5 3.4 0 5.5-1.7 5.5-5.8V28h-5.2v17.5c0 1.9-.8 2.4-1.9 2.4-1.2 0-1.9-.8-2.6-1.8L20 48zm14.4-.6c1.5 2.5 3.6 4.1 7.3 4.1 4 0 6.8-2 6.8-5.6 0-3.3-1.9-4.8-5.3-6.2l-1.3-.5c-1.7-.7-2.5-1.2-2.5-2.4 0-1 .7-1.7 1.9-1.7 1.2 0 1.9.5 2.6 1.7l4.2-2.7c-1.7-3-4.1-4.1-6.8-4.1-4.3 0-7 2.8-7 6.1 0 3.2 1.9 4.8 5 6l1.3.5c2 .9 2.9 1.4 2.9 2.7 0 1.2-1 2-2.7 2-1.9 0-3-.9-3.9-2.5l-4.5 2.6z" fill="#000"/>
</svg>
