<svg xmlns="http://www.w3.org/2000/svg" viewBox="0 0 64 64" width="64" height="64">
  <circle cx="32" cy="32" r="28" fill="#326CE5"/>
  <g fill="white">
    <path d="M32 10l-3 8.5 3 1 3-1L32 10z"/>
    <path d="M32 54l-3-8.5 3-1 3 1L32 54z"/>
    <path d="M10 32l8.5-3 1 3-1 3L10 32z"/>
    <path d="M54 32l-8.5-3-1 3 1 3L54 32z"/>
    <path d="M16.5 16.5l6 6.5 2.2-2.2-1-8.5-7.2 4.2z"/>
    <path d="M47.5 47.5l-6-6.5-2.2 2.2 1 8.5 7.2-4.2z"/>
    <path d="M16.5 47.5l8.5-1 .3-3-6.5-6-2.3 10z"/>
    <path d="M47.5 16.5l-8.5 1-.3 3 6.5 6 2.3-10z"/>
    <circle cx="32" cy="32" r="5"/>
  </g>
</svg>
